<svg width="96" height="96" xmlns="http://www.w3.org/2000/svg" xmlns:xlink="http://www.w3.org/1999/xlink" xml:space="preserve" overflow="hidden"><defs><clipPath id="clip0"><rect x="216" y="264" width="96" height="96"/></clipPath></defs><g clip-path="url(#clip0)" transform="translate(-216 -264)"><path d="M278.618 317.72C282.926 319.266 287.003 321.028 290.378 323.789 291.995 325.05 292.956 326.973 292.995 329.023L294.751 343.417C294.893 344.505 294.414 345.581 293.512 346.204 291.792 347.316 289.942 348.213 288.004 348.876L288.004 350.985C290.338 350.236 292.565 349.186 294.628 347.863 296.154 346.822 296.968 345.014 296.737 343.182L294.994 328.93C294.93 326.306 293.695 323.847 291.628 322.229 288.001 319.261 283.693 317.412 279.163 315.793L274.241 313.773C273.489 313.467 272.998 312.735 273 311.923L273 308.975C276.774 306.152 278.998 301.716 279.002 297.002L279.002 294.104C279.52 294.317 280.073 294.433 280.633 294.445 281.185 294.445 281.633 293.997 281.633 293.445 281.633 293.337 281.616 293.231 281.582 293.129L280.569 290.089C280.127 288.701 279.773 287.287 279.51 285.855 278.524 281.02 275.344 276.919 270.906 274.761 270.194 274.39 269.334 274.454 268.684 274.925L268.383 274.477C267.973 273.844 267.325 273.403 266.586 273.255 258.845 271.8 251.381 276.714 248.837 284.498 248.402 285.855 248.179 287.272 248.177 288.698L248.168 290.192C248.161 291.591 247.873 292.973 247.32 294.258L245.458 298.606C245.24 299.114 245.475 299.702 245.983 299.919 246.107 299.973 246.242 300 246.377 300 246.455 300 246.533 299.991 246.608 299.973 246.775 299.933 247.727 299.703 249.185 299.289 249.786 303.15 251.871 306.623 254.995 308.97L254.995 311.923C254.997 312.735 254.506 313.467 253.754 313.773L248.799 315.807C244.283 317.422 239.991 319.267 236.388 322.215 234.312 323.835 233.071 326.298 233.005 328.93L231.263 343.189C231.034 345.02 231.849 346.824 233.374 347.864 235.439 349.187 237.668 350.237 240.003 350.987L240.003 348.878C238.063 348.215 236.212 347.317 234.489 346.204 233.588 345.583 233.11 344.51 233.249 343.424L234.996 329.124 235.003 329.024C235.044 326.967 236.012 325.039 237.637 323.777 240.998 321.027 245.07 319.268 249.377 317.723L251.457 316.993C254.162 318.859 258.89 320.003 264 320.003 269.108 320.003 273.836 318.859 276.541 316.993ZM249.159 295.046C249.817 293.517 250.16 291.87 250.169 290.205L250.178 288.711C250.178 287.492 250.367 286.28 250.739 285.119 252.716 279.066 257.999 275 263.884 275 264.667 275.001 265.448 275.075 266.217 275.221 266.428 275.274 266.61 275.408 266.724 275.594L267.616 276.918C267.924 277.376 268.546 277.497 269.004 277.189 269.019 277.179 269.034 277.168 269.049 277.157L269.854 276.548C269.886 276.521 269.93 276.513 269.97 276.528 273.886 278.389 276.695 281.989 277.547 286.24L277.548 286.24C277.827 287.756 278.202 289.253 278.671 290.721L279.081 291.95C276.965 290.752 274.474 287.636 273.141 285.51 272.967 285.233 272.67 285.059 272.344 285.042 272.018 285.023 271.703 285.167 271.504 285.427 266.501 291.858 253.143 296.095 248.104 297.507ZM251.129 298.713C257.01 296.905 267.103 293.181 272.196 287.695 273.532 289.674 275.151 291.447 277.002 292.955L277.002 297.002C277.007 304.178 271.193 309.999 264.017 310.003 257.497 310.007 251.983 305.177 251.129 298.713ZM264.001 318.002C260.453 318.09 256.928 317.394 253.679 315.965L254.513 315.623C256.017 315.01 256.998 313.547 256.995 311.923L256.995 310.245C261.369 312.583 266.621 312.589 271 310.26L271 311.923C270.996 313.547 271.978 315.01 273.481 315.623L274.318 315.967C271.07 317.395 267.548 318.09 264.001 318.002Z" stroke="#06243B"/><path d="M286.004 329.54C285.998 327.579 284.405 325.995 282.444 326 282.441 326 282.437 326 282.434 326L245.544 326C243.59 326.002 242.006 327.586 242.004 329.54L242.004 352.19 235.004 352.19 235.004 354.464C235.017 356.413 236.595 357.989 238.544 358L289.468 358C291.417 357.987 292.993 356.409 293.004 354.46L293.004 352.19 286.004 352.19ZM291.004 354.19 291.004 354.456C290.999 355.305 290.313 355.993 289.464 356L238.548 356C237.699 355.995 237.011 355.309 237.004 354.46L237.004 354.19 244.004 354.19 244.004 329.54C244.005 328.69 244.694 328.001 245.544 328L282.464 328C283.314 328.001 284.003 328.69 284.004 329.54L284.004 354.19Z" stroke="#06243B"/><path d="M257.416 336.03 251.806 341.64 257.416 347.25 258.826 345.84 254.636 341.64 258.826 337.44 257.416 336.03Z" stroke="#06243B"/><path d="M269.146 337.44 273.336 341.64 269.146 345.84 270.556 347.25 276.166 341.64 270.556 336.03 269.146 337.44Z" stroke="#06243B"/><path d="M260.706 347.18 262.556 347.95 267.236 336.63 265.396 335.86 260.706 347.18Z" stroke="#06243B"/></g></svg>