<svg xmlns="http://www.w3.org/2000/svg" id="Ebene_1" data-name="Ebene 1" viewBox="77.65 0 105.1 42.52"><defs><clipPath id="clip-path"><path style="fill:none" d="M0 0h182.75v42.52H0z"/></clipPath></defs><g style="clip-path:url(#clip-path)"><path d="M101 7.76c.08-1.5 1.13-2.14 2.59-2.14 1.13 0 2.36.35 2.36 2.06v3.39a.42.42 0 0 0 .46.47.93.93 0 0 0 .25 0v.65a2.05 2.05 0 0 1-.51 0c-.8 0-.92-.44-.92-1.12a2.44 2.44 0 0 1-2.33 1.31c-1.18 0-2.15-.58-2.15-1.87 0-1.8 1.75-1.86 3.43-2.06.65-.08 1-.16 1-.87 0-1-.76-1.32-1.68-1.32s-1.68.45-1.71 1.49Zm4.17.94c-.09.19-.44.25-.65.29-1.33.24-3 .22-3 1.48a1.33 1.33 0 0 0 1.43 1.26 2.06 2.06 0 0 0 2.23-2ZM112.71 12.2H112v-1.15a2.39 2.39 0 0 1-2.21 1.34c-1.61 0-2.24-.94-2.24-2.43V5.8h.78V10c0 1.15.47 1.76 1.71 1.76s1.92-1.26 1.92-2.57V5.8h.78ZM118.11 7.68c0-1-.78-1.4-1.68-1.4-.69 0-1.51.27-1.51 1.1s.79.94 1.33 1.08l1 .23a1.88 1.88 0 0 1 1.82 1.77c0 1.39-1.37 1.93-2.57 1.93a2.32 2.32 0 0 1-2.62-2.26h.78a1.68 1.68 0 0 0 1.88 1.6c.73 0 1.75-.32 1.75-1.21s-.7-1-1.4-1.17l-1-.22c-1-.28-1.78-.62-1.78-1.72 0-1.3 1.28-1.79 2.4-1.79a2.1 2.1 0 0 1 2.35 2.06ZM121.52 5.8h1.3v.66h-1.3v4.32c0 .5.07.8.63.84a5 5 0 0 0 .67 0v.67h-.7c-1 0-1.4-.35-1.38-1.44V6.46h-1.12V5.8h1.12V3.88h.78ZM123.91 5.8h.72v1.5a2.38 2.38 0 0 1 2.42-1.58v.78a2.2 2.2 0 0 0-2.38 2.29v3.41h-.78ZM128 3.35h.79V4.6H128Zm0 2.45h.79v6.4H128ZM130.26 7.76c.07-1.5 1.13-2.14 2.59-2.14 1.13 0 2.36.35 2.36 2.06v3.39a.41.41 0 0 0 .46.47.86.86 0 0 0 .24 0v.65a2 2 0 0 1-.51 0c-.79 0-.91-.44-.91-1.12a2.42 2.42 0 0 1-2.33 1.31c-1.18 0-2.14-.58-2.14-1.87 0-1.8 1.74-1.86 3.43-2.06.65-.08 1-.16 1-.87 0-1-.75-1.32-1.67-1.32s-1.68.45-1.71 1.49Zm4.16.94c-.1.19-.45.25-.66.29-1.32.24-3 .22-3 1.48a1.33 1.33 0 0 0 1.42 1.26 2.05 2.05 0 0 0 2.23-2ZM77.65 18.72h.83l1.64 5.48h.02l1.56-5.48h.88l1.56 5.48h.03l1.64-5.48h.83l-2.06 6.4h-.86l-1.57-5.38h-.02l-1.57 5.38h-.85l-2.06-6.4zM87.6 16.27h.79v1.25h-.79Zm0 2.45h.79v6.4h-.79ZM89.94 18.72h.72v1.5a2.36 2.36 0 0 1 2.42-1.59v.78a2.21 2.21 0 0 0-2.38 2.3v3.41h-.78ZM95.55 18.72h1.31v.66h-1.31v4.31c0 .51.08.81.64.85h.67v.67h-.7c-1 0-1.4-.34-1.39-1.44v-4.39h-1.11v-.66h1.11V16.8h.78ZM101.78 20.59a1.48 1.48 0 0 0-1.68-1.4c-.69 0-1.51.27-1.51 1.1s.79.95 1.33 1.08l1 .24a1.88 1.88 0 0 1 1.82 1.77c0 1.39-1.37 1.92-2.57 1.92a2.31 2.31 0 0 1-2.62-2.25h.78a1.68 1.68 0 0 0 1.88 1.6c.73 0 1.75-.32 1.75-1.22 0-.74-.69-1-1.4-1.16l-1-.23c-1-.27-1.78-.62-1.78-1.71 0-1.3 1.28-1.8 2.4-1.8a2.1 2.1 0 0 1 2.35 2.06ZM108.49 20.73a1.75 1.75 0 0 0-1.81-1.54c-1.5 0-2.25 1.37-2.25 2.73s.75 2.73 2.25 2.73a1.91 1.91 0 0 0 1.86-1.82h.78a2.6 2.6 0 0 1-2.64 2.47c-2 0-3-1.55-3-3.38s1.07-3.39 3-3.39a2.4 2.4 0 0 1 2.59 2.2ZM110.5 16.27h.78v3.56a2.18 2.18 0 0 1 2-1.3c1.79 0 2.34.95 2.34 2.47v4.12h-.78v-4c0-1.11-.36-1.94-1.63-1.94a2 2 0 0 0-2 2.2v3.73h-.78ZM117.17 20.68c.07-1.5 1.12-2.15 2.59-2.15 1.13 0 2.35.35 2.35 2.06V24a.42.42 0 0 0 .46.47.62.62 0 0 0 .25-.05v.66a2 2 0 0 1-.51.05c-.79 0-.92-.45-.92-1.12A2.44 2.44 0 0 1 119 25.3c-1.18 0-2.15-.58-2.15-1.87 0-1.79 1.75-1.86 3.44-2.06.64-.07 1-.16 1-.86 0-1.06-.75-1.32-1.67-1.32s-1.69.45-1.71 1.49Zm4.16.94c-.1.19-.45.25-.66.29-1.33.23-3 .22-3 1.47a1.34 1.34 0 0 0 1.43 1.27 2.06 2.06 0 0 0 2.23-2ZM126.13 19.38h-1.26v5.74h-.79v-5.74H123v-.66h1.08v-.58c0-1.11.3-1.87 1.55-1.87a3.81 3.81 0 0 1 .66.05V17a3 3 0 0 0-.57-.07c-.87 0-.84.55-.85 1.24v.56h1.26ZM128.59 18.72h1.3v.66h-1.3v4.31c0 .51.07.81.63.85h.67v.67h-.7c-1 0-1.4-.34-1.38-1.44v-4.39h-1.12v-.66h1.12V16.8h.78ZM134.81 20.59a1.48 1.48 0 0 0-1.67-1.4c-.7 0-1.52.27-1.52 1.1s.8.95 1.33 1.08l1 .24a1.88 1.88 0 0 1 1.82 1.77c0 1.39-1.37 1.92-2.56 1.92a2.31 2.31 0 0 1-2.63-2.25h.78a1.69 1.69 0 0 0 1.89 1.6c.73 0 1.74-.32 1.74-1.22 0-.74-.69-1-1.4-1.16l-1-.23c-1-.27-1.79-.62-1.79-1.71 0-1.3 1.28-1.8 2.41-1.8a2.09 2.09 0 0 1 2.34 2.06ZM102.3 33.05a1.47 1.47 0 0 0-1.67-1.4c-.7 0-1.51.28-1.51 1.11s.79.94 1.32 1.08l1 .23c.9.14 1.83.66 1.83 1.77 0 1.39-1.38 1.93-2.57 1.93a2.32 2.32 0 0 1-2.63-2.26h.78a1.7 1.7 0 0 0 1.89 1.6c.73 0 1.75-.32 1.75-1.22 0-.74-.7-1-1.4-1.16l-1-.23c-1-.27-1.79-.61-1.79-1.71 0-1.3 1.28-1.79 2.41-1.79a2.09 2.09 0 0 1 2.34 2ZM105 34.59a2.27 2.27 0 0 0 2.11 2.52 1.94 1.94 0 0 0 2-1.64h.79a2.62 2.62 0 0 1-2.79 2.3c-2 0-2.89-1.56-2.89-3.39S105 31 107.08 31s2.87 1.79 2.81 3.59Zm4.14-.65a2.16 2.16 0 0 0-2-2.29 2.27 2.27 0 0 0-2.14 2.29ZM111.1 31.18h.71v1.5a2.36 2.36 0 0 1 2.42-1.58v.78a2.19 2.19 0 0 0-2.38 2.29v3.41h-.78ZM114.79 31.18h.87l2.01 5.62h.02l1.98-5.62h.81l-2.39 6.4h-.83l-2.47-6.4zM121.39 28.73h.78V30h-.78Zm0 2.45h.78v6.4h-.78ZM128.26 33.19a1.75 1.75 0 0 0-1.81-1.54c-1.5 0-2.25 1.37-2.25 2.73s.75 2.73 2.25 2.73a1.91 1.91 0 0 0 1.86-1.82h.78a2.61 2.61 0 0 1-2.64 2.48c-2 0-3-1.55-3-3.39s1.07-3.38 3-3.38a2.4 2.4 0 0 1 2.55 2.19ZM130.75 34.59a2.27 2.27 0 0 0 2.11 2.52 2 2 0 0 0 2-1.64h.78a2.62 2.62 0 0 1-2.79 2.3c-2 0-2.89-1.56-2.89-3.39s.85-3.38 2.89-3.38 2.87 1.79 2.81 3.59Zm4.14-.65a2.16 2.16 0 0 0-2-2.29 2.27 2.27 0 0 0-2.11 2.29ZM182.75 21.26A21.26 21.26 0 1 1 161.49 0a21.26 21.26 0 0 1 21.26 21.26" style="fill:#003a80"/><path d="M147.43 19.64a2.46 2.46 0 0 1 1.24-2.13 5.23 5.23 0 0 1 2.53-.51c1.88 0 3.7.41 3.7 2.66v3.44a4.54 4.54 0 0 0 .31 2h-2.62a3.12 3.12 0 0 1-.15-.75 3.58 3.58 0 0 1-2.62 1c-1.52 0-2.71-.76-2.71-2.4 0-2.59 2.82-2.39 4.62-2.76.45-.09.69-.24.69-.73s-.72-.83-1.25-.83a1.18 1.18 0 0 0-1.31 1Zm3.37 4.12c1.24 0 1.65-.71 1.59-2.35a7.16 7.16 0 0 1-1.61.43c-.58.14-1.07.38-1.07 1s.51.91 1.09.91M165.56 25.14h-2.63l-1.26-5.29h-.03l-1.24 5.29h-2.63l-2.48-7.95h2.63l1.33 5.14h.03l1.14-5.14h2.48l1.16 5.13h.03l1.3-5.13h2.65l-2.48 7.95zM170.59 22.52a1.07 1.07 0 0 0 .43.88 1.56 1.56 0 0 0 1 .28c.51 0 1.23-.22 1.23-.84s-.81-.74-1.27-.84c-1.64-.42-3.69-.46-3.69-2.61 0-1.91 2.06-2.43 3.63-2.43 1.74 0 3.56.5 3.66 2.57h-2.41a.74.74 0 0 0-.34-.69 1.49 1.49 0 0 0-.82-.2c-.43 0-1.12.05-1.12.6 0 .75 1.74.89 2.94 1.15a2.24 2.24 0 0 1 2 2.14c0 2.13-2 2.83-3.81 2.83s-3.82-.62-3.89-2.84Z" style="fill:#fff"/></g></svg>