<svg width="77" height="77" xmlns="http://www.w3.org/2000/svg" xml:space="preserve" overflow="hidden"><defs><clipPath id="clip0"><path d="M583 387h77v77h-77z"/></clipPath></defs><g clip-path="url('#clip0')" transform="translate(-583 -387)" fill="#7DA7D1"><path d="M653.583 418.281h-3.208v-8.823a3.218 3.218 0 0 0-3.208-3.208h-57.75a3.218 3.218 0 0 0-3.209 3.208v32.084a3.218 3.218 0 0 0 3.209 3.208h57.75a3.218 3.218 0 0 0 3.208-3.208v-8.823h3.208a3.218 3.218 0 0 0 3.209-3.209v-8.02a3.218 3.218 0 0 0-3.209-3.209Zm-8.021 21.657h-54.541v-28.876h54.541v28.876Z"/><path d="M594.229 414.271h48.125v22.458h-48.125Z"/></g></svg>