<svg width="77" height="77" xmlns="http://www.w3.org/2000/svg" xmlns:xlink="http://www.w3.org/1999/xlink" xml:space="preserve" overflow="hidden"><defs><clipPath id="clip0"><rect x="583" y="387" width="77" height="77"></rect></clipPath></defs><g clip-path="url('#clip0')" transform="translate(-583 -387)"><path d="M653.583 418.281 650.375 418.281 650.375 409.458C650.375 407.694 648.931 406.25 647.167 406.25L589.417 406.25C587.652 406.25 586.208 407.694 586.208 409.458L586.208 441.542C586.208 443.306 587.652 444.75 589.417 444.75L647.167 444.75C648.931 444.75 650.375 443.306 650.375 441.542L650.375 432.719 653.583 432.719C655.348 432.719 656.792 431.275 656.792 429.51L656.792 421.49C656.792 419.725 655.348 418.281 653.583 418.281ZM645.562 439.938 591.021 439.938 591.021 411.062 645.562 411.062 645.562 439.938Z" fill="#7DA7D1"></path><path d="M594.229 414.271 642.354 414.271 642.354 436.729 594.229 436.729Z" fill="#7DA7D1"></path></g></svg>