<svg width="77" height="77" xmlns="http://www.w3.org/2000/svg" xml:space="preserve" overflow="hidden"><defs><clipPath id="clip0"><path d="M381 519h77v77h-77z"/></clipPath></defs><g clip-path="url('#clip0')" transform="translate(-381 -519)" fill="#7DA7D1"><path d="M397.042 560.708H419.5v3.209h-22.458ZM397.042 567.125H419.5v3.208h-22.458ZM400.571 552.928c.08 0 8.582-3.048 18.929-3.048 10.347 0 18.849 3.048 18.929 3.048.321.08.562.161.882.161a2.555 2.555 0 0 0 2.487-1.925c.481-1.444-.241-3.048-1.684-3.53-.321-.16-9.385-3.368-20.614-3.368-11.229 0-20.293 3.208-20.694 3.368-1.363.482-2.165 2.086-1.684 3.53.561 1.524 2.085 2.245 3.449 1.764"/><path d="M387.417 579.958h64.166v-44.916h-64.166v44.916Zm59.354-4.812h-54.542v-35.292h54.542v35.292Z"/><path d="m439.953 563.355.321-2.165-2.085.401-.803-2.086-1.604 1.444-1.684-1.444-.722 2.086-2.166-.401.401 2.165-2.085.722 1.444 1.684-1.444 1.605 2.085.802-.401 2.085 2.166-.321.722 2.006 1.684-1.364 1.604 1.364.803-2.006 2.085.321-.321-2.085 2.005-.802-1.363-1.605 1.363-1.684Z"/></g></svg>