<svg width="96" height="96" xmlns="http://www.w3.org/2000/svg" xml:space="preserve" overflow="hidden"><defs><clipPath id="clip0"><path d="M216 264h96v96h-96z"/></clipPath></defs><g clip-path="url('#clip0')" transform="translate(-216 -264)" stroke="#06243B"><path d="M278.618 317.72c4.308 1.546 8.385 3.308 11.76 6.069a6.8 6.8 0 0 1 2.617 5.234l1.756 14.394a2.927 2.927 0 0 1-1.239 2.787 25.123 25.123 0 0 1-5.508 2.672v2.109a28.279 28.279 0 0 0 6.624-3.122 4.921 4.921 0 0 0 2.109-4.681l-1.743-14.252a8.783 8.783 0 0 0-3.366-6.701c-3.627-2.968-7.935-4.817-12.465-6.436l-4.922-2.02a1.992 1.992 0 0 1-1.241-1.85v-2.948a14.967 14.967 0 0 0 6.002-11.973v-2.898a4.546 4.546 0 0 0 1.631.341 1 1 0 0 0 .949-1.316l-1.013-3.04a34.481 34.481 0 0 1-1.059-4.234 15.86 15.86 0 0 0-8.604-11.094 2.118 2.118 0 0 0-2.222.164l-.301-.448a2.796 2.796 0 0 0-1.797-1.222c-7.741-1.455-15.205 3.459-17.749 11.243a13.824 13.824 0 0 0-.66 4.2l-.009 1.494a10.414 10.414 0 0 1-.848 4.066l-1.862 4.348a.999.999 0 0 0 1.15 1.367c.167-.04 1.119-.27 2.577-.684a14.993 14.993 0 0 0 5.81 9.681v2.953a1.992 1.992 0 0 1-1.241 1.85l-4.955 2.034c-4.516 1.615-8.808 3.46-12.411 6.408a8.796 8.796 0 0 0-3.383 6.715l-1.742 14.259a4.92 4.92 0 0 0 2.111 4.675 28.376 28.376 0 0 0 6.629 3.123v-2.109a25.15 25.15 0 0 1-5.514-2.674 2.925 2.925 0 0 1-1.24-2.78l1.747-14.3.007-.1a6.815 6.815 0 0 1 2.634-5.247c3.361-2.75 7.433-4.509 11.74-6.054l2.08-.73c2.705 1.866 7.433 3.01 12.543 3.01 5.108 0 9.836-1.144 12.541-3.01Zm-29.459-22.674a12.418 12.418 0 0 0 1.01-4.841l.009-1.494c0-1.219.189-2.431.561-3.592 1.977-6.053 7.26-10.119 13.145-10.119.783.001 1.564.075 2.333.221a.833.833 0 0 1 .507.373l.892 1.324a1 1 0 0 0 1.433.239l.805-.609a.116.116 0 0 1 .116-.02 13.744 13.744 0 0 1 7.577 9.712h.001a36.336 36.336 0 0 0 1.123 4.481l.41 1.229c-2.116-1.198-4.607-4.314-5.94-6.44a1.002 1.002 0 0 0-1.637-.083c-5.003 6.431-18.361 10.668-23.4 12.08Zm1.97 3.667c5.881-1.808 15.974-5.532 21.067-11.018a24.377 24.377 0 0 0 4.806 5.26v4.047c.005 7.176-5.809 12.997-12.985 13.001a12.992 12.992 0 0 1-12.888-11.29Zm12.872 19.289a24.154 24.154 0 0 1-10.322-2.037l.834-.342a3.986 3.986 0 0 0 2.482-3.7v-1.678a14.884 14.884 0 0 0 14.005.015v1.663a3.986 3.986 0 0 0 2.481 3.7l.837.344a24.145 24.145 0 0 1-10.317 2.035Z"/><path d="M286.004 329.54a3.55 3.55 0 0 0-3.56-3.54h-36.9a3.544 3.544 0 0 0-3.54 3.54v22.65h-7v2.274a3.56 3.56 0 0 0 3.54 3.536h50.924a3.56 3.56 0 0 0 3.536-3.54v-2.27h-7Zm5 24.65v.266a1.553 1.553 0 0 1-1.54 1.544h-50.916a1.553 1.553 0 0 1-1.544-1.54v-.27h7v-24.65c.001-.85.69-1.539 1.54-1.54h36.92c.85.001 1.539.69 1.54 1.54v24.65Z"/><path d="m257.416 336.03-5.61 5.61 5.61 5.61 1.41-1.41-4.19-4.2 4.19-4.2-1.41-1.41ZM269.146 337.44l4.19 4.2-4.19 4.2 1.41 1.41 5.61-5.61-5.61-5.61-1.41 1.41ZM260.706 347.18l1.85.77 4.68-11.32-1.84-.77-4.69 11.32Z"/></g></svg>