<svg id="Logo_vertikal_Farbe" xmlns="http://www.w3.org/2000/svg" viewBox="0 0 381.91813 558.81694"><defs><style>.cls-1 {
  fill: #7da7d1;
}

.cls-2 {
  fill: #fff;
}

.cls-3 {
  fill: #06253a;
}

</style></defs><path class="cls-1" d="M107.54548,135.05639H81.82207v-39.383l4.758-5.604h20.96546S291.94,82.8457,291.94,257.25937l-4.098,11.41506H247.62928l.2779-11.41468s-.82979-122.20336-140.3617-122.20336"></path><path class="cls-1" d="M86.58,44.8649V.06937c48.53992,0,295.33811-11.37469,295.33811,257.19038l-45.03289.00037C336.88524,101.77875,234.24871,44.8649,86.58,44.8649Z"></path><polygon class="cls-2" points="45.908 143.708 45.789 143.708 45.789 143.657 45.908 143.708"></polygon><path class="cls-3" d="M.70012,511.14472H17.98965a23.4496,23.4496,0,1,1,0,46.89335H.70012ZM12.89,547.714h2.73623c7.27665,0,13.49643-3.98036,13.49643-13.12277,0-8.39594-5.53572-13.12277-13.37159-13.12277H12.89Z"></path><path class="cls-1" d="M36.37408,171.8633h70.98735c53.62319,0,95.75512,33.25816,95.75512,87.39216,0,65.90829-42.38474,97.14208-95.75512,97.14208H36.37408ZM56.42142,314.00876h41.2363c29.87647,0,56.41369-13.34234,56.41369-50.87927,0-34.472-23.72862-48.87914-55.90114-48.87914H56.42142Z"></path><path class="cls-3" d="M101.67238,541.4326h.124l9.82731-30.28788h9.70164l9.20483,30.28788h.124l8.83117-30.28788h12.68753l-14.98853,46.89335H124.7456l-8.20868-27.17842h-.12484l-9.20483,27.17842H94.831L80.83773,511.14472H93.52526Z"></path><path class="cls-3" d="M167.40345,558.03807H155.21357V511.14472h12.18988Z"></path><path class="cls-3" d="M175.36163,511.14472h12.18988l22.3276,28.67094h.124V511.14472H222.193v46.89335H210.0031l-22.3276-28.73336h-.124v28.73336H175.36163Z"></path><path class="cls-3" d="M242.33851,521.46841v7.8363h13.74441v10.32412H242.33851V547.714H256.8294v10.32412H230.14863V511.14472H256.8294v10.32369Z"></path><path class="cls-3" d="M60.09418,521.46841v7.8363h13.7444v10.32412H60.09418V547.714H74.58506v10.32412H47.90429V511.14472H74.58506v10.32369Z"></path><path class="cls-3" d="M291.94,257.25937H203.12c-.38,65.84-45.65,98.49-97.11,98.49H86.58v-265.68H0v340.67H122.8c92.33,0,169.18-74.55,169.18-170.34C291.98,259.34934,291.96,258.28934,291.94,257.25937Z"></path><path class="cls-1" d="M274.2626,514.47859V551.71h12.78014v6.25953H267.612V514.47859Z"></path><path class="cls-1" d="M312.21194,530.519h6.38954V557.9695h-6.38954v-2.86869a10.54288,10.54288,0,0,1-8.216,3.71613c-8.476,0-13.30124-7.0417-13.30124-14.60557,0-8.93241,6.129-14.40976,13.36651-14.40976a10.00879,10.00879,0,0,1,8.15077,3.91194Zm-14.99667,13.82287c0,4.75992,2.99923,8.73713,7.62861,8.73713,4.04248,0,7.75914-2.934,7.75914-8.67186,0-5.99845-3.71666-8.86767-7.75914-8.86767C300.2145,535.53951,297.21527,539.452,297.21527,544.34191Z"></path><path class="cls-1" d="M333.0781,533.71355a10.00791,10.00791,0,0,1,8.15024-3.91194c7.238,0,13.367,5.47735,13.367,14.40976,0,7.56387-4.82519,14.60557-13.30177,14.60557a10.5426,10.5426,0,0,1-8.21551-3.71613v2.86869H326.688V510.43611h6.39007Zm-.39108,10.69363c0,5.7379,3.71666,8.67186,7.75914,8.67186,4.62938,0,7.62861-3.97721,7.62861-8.73713,0-4.88993-2.99923-8.8024-7.62861-8.8024C336.40368,535.53951,332.687,538.40873,332.687,544.40718Z"></path><path class="cls-1" d="M373.24449,537.75656a4.59668,4.59668,0,0,0-3.91194-2.34759,2.7086,2.7086,0,0,0-1.956.71744,2.066,2.066,0,0,0-.5869,1.43434,1.75524,1.75524,0,0,0,.91272,1.56488c.39109.26108.78217.39109,2.15178,1.10853l3.25977,1.63015a13.172,13.172,0,0,1,3.84721,2.54287,6.77536,6.77536,0,0,1,2.02124,5.08574,9.11488,9.11488,0,0,1-2.41233,6.25953,9.80172,9.80172,0,0,1-7.69388,3.06449,9.4493,9.4493,0,0,1-5.93371-1.76016,10.6976,10.6976,0,0,1-3.52085-5.021l5.21627-2.47759a7.22186,7.22186,0,0,0,1.49961,2.60813,3.91315,3.91315,0,0,0,2.80342,1.04326,3.84632,3.84632,0,0,0,2.60867-.91272,3.23936,3.23936,0,0,0,.91272-2.15178,2.96029,2.96029,0,0,0-.848-2.08651,8.40952,8.40952,0,0,0-2.73815-1.69542l-2.34759-1.10852a13.5353,13.5353,0,0,1-3.78193-2.34706,5.98552,5.98552,0,0,1-1.956-4.62938,8.57074,8.57074,0,0,1,2.28232-5.86845,8.846,8.846,0,0,1,6.71589-2.60813,8.58993,8.58993,0,0,1,5.08574,1.43434,9.42722,9.42722,0,0,1,3.12976,3.39084Z"></path></svg>