<svg id="Logo_horizontal_Farbe" xmlns="http://www.w3.org/2000/svg" viewBox="0 0 908.189 249.182"><defs><style>.cls-1{fill:#7da7d1}.cls-3{fill:#06253a}</style></defs><path class="cls-1" d="M52.3 65.678H39.79V46.526l2.314-2.725H52.3s89.671-3.513 89.671 81.305l-1.387 7.172h-19.851l-.175-7.172s-.403-59.428-68.258-59.428"/><path class="cls-1" d="M42.104 21.818V.034c23.605 0 143.624-5.532 143.624 125.072h-21.9c0-75.61-49.912-103.288-121.724-103.288Z"/><path style="fill:#fff" d="M22.325 69.886h-.058v-.025l.058.025z"/><path class="cls-1" d="M17.689 83.578H52.21c26.077 0 46.566 16.173 46.566 42.499 0 32.051-20.612 47.24-46.566 47.24H17.69Zm12.338 69.125h17.464c14.53 0 27.434-6.488 27.434-24.742 0-16.764-11.539-23.77-27.184-23.77H30.027Z"/><path class="cls-3" d="M141.971 125.106H98.778c-.185 32.018-22.2 47.896-47.225 47.896h-9.449V43.801H0V209.47h59.718a82.367 82.367 0 0 0 82.273-82.837c0-.51-.01-1.026-.02-1.527ZM238.066 83.508h30.628c23.137 0 42.197 18.179 42.197 41.536 0 23.357-19.17 41.536-42.197 41.536h-30.628Zm21.594 64.782h4.848c12.89 0 23.908-7.05 23.908-23.246 0-14.874-9.806-23.247-23.687-23.247h-5.069ZM416.937 137.163h.22l17.409-53.655h17.186l16.307 53.655h.22l15.643-53.655h22.476l-26.552 83.072h-22.035l-14.541-48.147h-.221l-16.307 48.146h-21.924l-24.789-83.07h22.476ZM533.38 166.58h-21.595V83.508h21.594ZM547.477 83.508h21.594l39.553 50.79h.22v-50.79h21.594v83.072h-21.594l-39.553-50.901h-.22v50.9h-21.594ZM666.126 101.797v13.882h24.348v18.289h-24.348v14.322h25.67v18.29h-47.264V83.508h47.264v18.289ZM343.282 101.797v13.882h24.348v18.289h-24.348v14.322h25.67v18.29h-47.264V83.508h47.264v18.289Z"/><path class="cls-1" d="M722.679 89.414v65.955h22.64v11.09h-34.422V89.413ZM789.906 117.83h11.319v48.628h-11.32v-5.082a18.677 18.677 0 0 1-14.554 6.583c-15.015 0-23.563-12.474-23.563-25.873 0-15.824 10.858-25.527 23.679-25.527a17.73 17.73 0 0 1 14.439 6.93Zm-26.567 24.487c0 8.432 5.313 15.478 13.514 15.478 7.162 0 13.746-5.198 13.746-15.362 0-10.627-6.584-15.71-13.746-15.71-8.2 0-13.514 6.932-13.514 15.594ZM826.87 123.489a17.729 17.729 0 0 1 14.438-6.93c12.822 0 23.68 9.703 23.68 25.527 0 13.399-8.548 25.873-23.564 25.873a18.676 18.676 0 0 1-14.554-6.583v5.082h-11.32V82.253h11.32Zm-.693 18.944c0 10.164 6.584 15.362 13.745 15.362 8.201 0 13.514-7.046 13.514-15.478 0-8.663-5.313-15.593-13.514-15.593-7.16 0-13.745 5.082-13.745 15.709ZM898.024 130.651a8.143 8.143 0 0 0-6.93-4.159 4.798 4.798 0 0 0-3.465 1.271 3.66 3.66 0 0 0-1.04 2.541 3.11 3.11 0 0 0 1.617 2.772c.693.463 1.386.693 3.812 1.964l5.775 2.888a23.334 23.334 0 0 1 6.815 4.505 12.002 12.002 0 0 1 3.58 9.009 16.147 16.147 0 0 1-4.273 11.089c-3.812 4.158-8.547 5.428-13.63 5.428a16.74 16.74 0 0 1-10.51-3.118 18.95 18.95 0 0 1-6.238-8.894l9.24-4.39a12.793 12.793 0 0 0 2.657 4.62 6.932 6.932 0 0 0 4.966 1.849 6.814 6.814 0 0 0 4.622-1.617 5.739 5.739 0 0 0 1.617-3.812 5.244 5.244 0 0 0-1.503-3.696 14.897 14.897 0 0 0-4.85-3.003l-4.159-1.964a23.977 23.977 0 0 1-6.7-4.158 10.603 10.603 0 0 1-3.465-8.2 15.183 15.183 0 0 1 4.043-10.397c2.194-2.31 5.89-4.62 11.898-4.62a15.217 15.217 0 0 1 9.009 2.54 16.7 16.7 0 0 1 5.544 6.008Z"/></svg>