<svg id="Logo_horizontal_Farbe" xmlns="http://www.w3.org/2000/svg" viewBox="0 0 908.18882 249.18179"><defs><style>.cls-1 {
  fill: #7da7d1;
}

.cls-2 {
  fill: #fff;
}

.cls-3 {
  fill: #06253a;
}

</style></defs><path class="cls-1" d="M52.29972,65.67837H39.79034V46.52629L42.10415,43.801H52.29972s89.67167-3.51289,89.67167,81.30505l-1.38762,7.17146H120.73271l-.17463-7.17128s-.40353-59.42789-68.25836-59.42789"></path><path class="cls-1" d="M42.10415,21.818V.03373c23.60512,0,143.6239-5.53154,143.6239,125.07253l-21.89965.00018C163.8284,49.49534,113.91592,21.818,42.10415,21.818Z"></path><polygon class="cls-2" points="22.325 69.886 22.267 69.886 22.267 69.861 22.325 69.886"></polygon><path class="cls-1" d="M17.68883,83.57769H52.21022c26.07713,0,46.566,16.17355,46.566,42.49909,0,32.05142-20.61184,47.24052-46.566,47.24052H17.68883ZM30.02719,152.7035H47.49127c14.529,0,27.43417-6.48843,27.43417-24.74276,0-16.76387-11.53931-23.77009-27.18492-23.77009H30.02719Z"></path><path class="cls-3" d="M141.97139,125.10608H98.77792c-.18479,32.01819-22.19972,47.896-47.2249,47.896H42.10415V43.801H0V209.47H59.718a82.367,82.367,0,0,0,82.27279-82.83689C141.99083,126.12244,141.98112,125.607,141.97139,125.10608Z"></path><path class="cls-3" d="M238.06609,83.5085h30.6282c23.13626,0,42.19633,18.17849,42.19633,41.53514,0,23.35741-19.16914,41.5359-42.19633,41.5359h-30.6282Zm21.59424,64.782h4.8472c12.8905,0,23.90877-7.05115,23.90877-23.24684,0-14.8733-9.80647-23.24683-23.68762-23.24683h-5.06835Z"></path><path class="cls-3" d="M416.93729,137.16314h.21965l17.409-53.65464h17.18634l16.30625,53.65464h.21965L483.92247,83.5085h22.47582l-26.552,83.071h-22.035l-14.5416-48.14626h-.22114l-16.30625,48.14626H404.8178L380.029,83.5085h22.47582Z"></path><path class="cls-3" d="M533.37914,166.57954H511.7849V83.5085h21.59424Z"></path><path class="cls-3" d="M547.477,83.5085H569.0712l39.55308,50.79025h.21965V83.5085h21.59424v83.071H608.84393l-39.55309-50.90082h-.21964v50.90082H547.477Z"></path><path class="cls-3" d="M666.12574,101.79681v13.88191H690.4738v18.28906H666.12574v14.3227h25.67043v18.28906H644.5315V83.5085h47.26467v18.28831Z"></path><path class="cls-3" d="M343.282,101.79681v13.88191H367.63v18.28906H343.282v14.3227h25.67043v18.28906H321.68774V83.5085h47.26467v18.28831Z"></path><path class="cls-1" d="M722.67889,89.41443v65.955h22.63988v11.08868H710.89739V89.41443Z"></path><path class="cls-1" d="M789.90571,117.8299h11.319v48.62816h-11.319v-5.08184a18.67664,18.67664,0,0,1-14.55461,6.58309c-15.01523,0-23.563-12.47431-23.563-25.87361,0-15.82366,10.85744-25.52673,23.67862-25.52673a17.73044,17.73044,0,0,1,14.439,6.93ZM763.3393,142.317c0,8.43214,5.31309,15.47772,13.514,15.47772,7.16121,0,13.74524-5.19747,13.74524-15.3621,0-10.62619-6.584-15.709-13.74524-15.709C768.65239,126.7236,763.3393,133.6545,763.3393,142.317Z"></path><path class="cls-1" d="M826.86989,123.48893a17.72887,17.72887,0,0,1,14.438-6.93c12.82212,0,23.67956,9.70307,23.67956,25.52673,0,13.3993-8.54777,25.87361-23.56394,25.87361a18.67613,18.67613,0,0,1-14.55366-6.58309v5.08184H815.55V82.25322h11.31994Zm-.69281,18.94364c0,10.16463,6.584,15.3621,13.74523,15.3621,8.2009,0,13.514-7.04558,13.514-15.47772,0-8.66245-5.31309-15.59335-13.514-15.59335C832.7611,126.7236,826.17708,131.80638,826.17708,142.43257Z"></path><path class="cls-1" d="M898.02418,130.65108a8.143,8.143,0,0,0-6.93-4.15873,4.79829,4.79829,0,0,0-3.465,1.27093,3.66,3.66,0,0,0-1.03968,2.54092,3.10941,3.10941,0,0,0,1.61687,2.77217c.69281.4625,1.38561.69281,3.81185,1.96374l5.77466,2.8878a23.334,23.334,0,0,1,6.81527,4.50466,12.00248,12.00248,0,0,1,3.58061,9.00933,16.14691,16.14691,0,0,1-4.27342,11.08869c-3.81185,4.15872-8.54776,5.42872-13.62961,5.42872a16.7394,16.7394,0,0,1-10.5115-3.11811,18.9508,18.9508,0,0,1-6.23716-8.89464l9.24058-4.389a12.79316,12.79316,0,0,0,2.65655,4.62029,6.932,6.932,0,0,0,4.96622,1.84811,6.81372,6.81372,0,0,0,4.62122-1.61686,5.73855,5.73855,0,0,0,1.61687-3.81186,5.24413,5.24413,0,0,0-1.50218-3.69623,14.89733,14.89733,0,0,0-4.8506-3.00342l-4.15873-1.96374a23.97717,23.97717,0,0,1-6.69965-4.15778,10.60326,10.60326,0,0,1-3.465-8.2009,15.183,15.183,0,0,1,4.04311-10.39588c2.194-2.30967,5.89027-4.62028,11.89712-4.62028a15.21691,15.21691,0,0,1,9.00932,2.54092,16.70018,16.70018,0,0,1,5.54435,6.00684Z"></path></svg>