<svg id="Logo_vertikal_Farbe" xmlns="http://www.w3.org/2000/svg" viewBox="0 0 381.918 558.817"><defs><style>.cls-1{fill:#7da7d1}.cls-3{fill:#06253a}</style></defs><path class="cls-1" d="M107.545 135.056H81.822V95.673l4.758-5.604h20.966S291.94 82.846 291.94 257.26l-4.098 11.415h-40.213l.278-11.414s-.83-122.204-140.362-122.204"/><path class="cls-1" d="M86.58 44.865V.069c48.54 0 295.338-11.374 295.338 257.19l-45.033.001c0-155.481-102.636-212.395-250.305-212.395Z"/><path style="fill:#fff" d="M45.908 143.708h-.119v-.051l.119.051z"/><path class="cls-3" d="M.7 511.145h17.29a23.45 23.45 0 1 1 0 46.893H.7Zm12.19 36.569h2.736c7.277 0 13.497-3.98 13.497-13.123 0-8.396-5.536-13.123-13.372-13.123H12.89Z"/><path class="cls-1" d="M36.374 171.863h70.987c53.624 0 95.756 33.258 95.756 87.392 0 65.909-42.385 97.143-95.756 97.143H36.374ZM56.421 314.01h41.237c29.876 0 56.413-13.343 56.413-50.88 0-34.472-23.728-48.879-55.9-48.879H56.42Z"/><path class="cls-3" d="M101.672 541.433h.124l9.828-30.288h9.701l9.205 30.288h.124l8.831-30.288h12.688l-14.989 46.893h-12.438l-8.21-27.178h-.124l-9.205 27.178H94.831l-13.993-46.893h12.687ZM167.403 558.038h-12.19v-46.893h12.19ZM175.362 511.145h12.19l22.327 28.67h.124v-28.67h12.19v46.893h-12.19l-22.327-28.733h-.124v28.733h-12.19ZM242.339 521.468v7.837h13.744v10.324h-13.744v8.085h14.49v10.324h-26.68v-46.893h26.68v10.323ZM60.094 521.468v7.837H73.84v10.324H60.094v8.085h14.491v10.324h-26.68v-46.893h26.68v10.323ZM291.94 257.26h-88.82c-.38 65.84-45.65 98.49-97.11 98.49H86.58V90.07H0v340.67h122.8c92.33 0 169.18-74.55 169.18-170.34 0-1.05-.02-2.11-.04-3.14Z"/><path class="cls-1" d="M274.263 514.479v37.231h12.78v6.26h-19.431v-43.491ZM312.212 530.519h6.39v27.45h-6.39v-2.868a10.543 10.543 0 0 1-8.216 3.716c-8.476 0-13.301-7.042-13.301-14.606 0-8.932 6.129-14.41 13.366-14.41a10.009 10.009 0 0 1 8.151 3.913Zm-14.997 13.823c0 4.76 3 8.737 7.629 8.737 4.042 0 7.759-2.934 7.759-8.672 0-5.998-3.717-8.868-7.76-8.868-4.629 0-7.628 3.913-7.628 8.803ZM333.078 533.714a10.008 10.008 0 0 1 8.15-3.912c7.238 0 13.367 5.477 13.367 14.41 0 7.563-4.825 14.605-13.301 14.605a10.543 10.543 0 0 1-8.216-3.716v2.869h-6.39v-47.534h6.39Zm-.391 10.693c0 5.738 3.717 8.672 7.76 8.672 4.629 0 7.628-3.977 7.628-8.737 0-4.89-3-8.802-7.629-8.802-4.042 0-7.759 2.869-7.759 8.867ZM373.244 537.757a4.597 4.597 0 0 0-3.911-2.348 2.709 2.709 0 0 0-1.956.717 2.066 2.066 0 0 0-.587 1.435 1.755 1.755 0 0 0 .912 1.565c.391.26.783.39 2.152 1.108l3.26 1.63a13.172 13.172 0 0 1 3.847 2.543 6.775 6.775 0 0 1 2.021 5.086 9.115 9.115 0 0 1-2.412 6.26 9.802 9.802 0 0 1-7.694 3.064 9.45 9.45 0 0 1-5.934-1.76 10.698 10.698 0 0 1-3.52-5.021l5.216-2.478a7.222 7.222 0 0 0 1.5 2.608 3.913 3.913 0 0 0 2.803 1.044 3.846 3.846 0 0 0 2.609-.913 3.24 3.24 0 0 0 .912-2.152 2.96 2.96 0 0 0-.848-2.086 8.41 8.41 0 0 0-2.738-1.696l-2.347-1.108a13.535 13.535 0 0 1-3.782-2.347 5.986 5.986 0 0 1-1.956-4.63 8.57 8.57 0 0 1 2.282-5.868 8.846 8.846 0 0 1 6.716-2.608 8.59 8.59 0 0 1 5.086 1.434 9.427 9.427 0 0 1 3.13 3.39Z"/></svg>