<svg width="96" height="96" xmlns="http://www.w3.org/2000/svg" xml:space="preserve" overflow="hidden"><defs><clipPath id="clip0"><path d="M968 270h96v96h-96z"/></clipPath></defs><g clip-path="url('#clip0')" transform="translate(-968 -270)" stroke="#06243B"><path d="M999 335h34v-34h-34Zm2-32h30v30h-30Z"/><path d="M1052 299v-2h-9v-1c0-2.76-2.24-4.997-5-5h-1v-9h-2v9h-6v-9h-2v9h-6v-9h-2v9h-6v-9h-2v9h-6v-9h-2v9h-6v-9h-2v9h-1a5.006 5.006 0 0 0-5 5v1h-9v2h9v6h-9v2h9v6h-9v2h9v6h-9v2h9v6h-9v2h9v6h-9v2h9v1a5.006 5.006 0 0 0 5 5h1v9h2v-9h6v9h2v-9h6v9h2v-9h6v9h2v-9h6v9h2v-9h6v9h2v-9h1c2.76-.003 5-2.24 5-5v-1h9v-2h-9v-6h9v-2h-9v-6h9v-2h-9v-6h9v-2h-9v-6h9v-2h-9v-6Zm-11 41c0 1.657-1.34 3-3 3h-44a3 3 0 0 1-3-3v-44a3 3 0 0 1 3-3h44c1.66 0 3 1.343 3 3Z"/></g></svg>