<svg width="96" height="96" xmlns="http://www.w3.org/2000/svg" xmlns:xlink="http://www.w3.org/1999/xlink" xml:space="preserve" overflow="hidden"><defs><clipPath id="clip0"><rect x="968" y="270" width="96" height="96"></rect></clipPath></defs><g clip-path="url('#clip0')" transform="translate(-968 -270)"><path d="M999 335 1033 335 1033 301 999 301ZM1001 303 1031 303 1031 333 1001 333Z" stroke="#06243B"></path><path d="M1052 299 1052 297 1043 297 1043 296C1043 293.24 1040.76 291.003 1038 291L1037 291 1037 282 1035 282 1035 291 1029 291 1029 282 1027 282 1027 291 1021 291 1021 282 1019 282 1019 291 1013 291 1013 282 1011 282 1011 291 1005 291 1005 282 1003 282 1003 291 997 291 997 282 995 282 995 291 994 291C991.24 291.003 989.003 293.24 989 296L989 297 980 297 980 299 989 299 989 305 980 305 980 307 989 307 989 313 980 313 980 315 989 315 989 321 980 321 980 323 989 323 989 329 980 329 980 331 989 331 989 337 980 337 980 339 989 339 989 340C989.003 342.76 991.24 344.997 994 345L995 345 995 354 997 354 997 345 1003 345 1003 354 1005 354 1005 345 1011 345 1011 354 1013 354 1013 345 1019 345 1019 354 1021 354 1021 345 1027 345 1027 354 1029 354 1029 345 1035 345 1035 354 1037 354 1037 345 1038 345C1040.76 344.997 1043 342.76 1043 340L1043 339 1052 339 1052 337 1043 337 1043 331 1052 331 1052 329 1043 329 1043 323 1052 323 1052 321 1043 321 1043 315 1052 315 1052 313 1043 313 1043 307 1052 307 1052 305 1043 305 1043 299ZM1041 340C1041 341.657 1039.66 343 1038 343L994 343C992.343 343 991 341.657 991 340L991 296C991 294.343 992.343 293 994 293L1038 293C1039.66 293 1041 294.343 1041 296Z" stroke="#06243B"></path></g></svg>