<svg width="96" height="96" xmlns="http://www.w3.org/2000/svg" xmlns:xlink="http://www.w3.org/1999/xlink" xml:space="preserve" overflow="hidden"><defs><clipPath id="clip0"><rect x="775" y="232" width="96" height="96"></rect></clipPath></defs><g clip-path="url('#clip0')" transform="translate(-775 -232)"><path d="M819.9 304.4C819.4 304.4 818.8 304.3 818.4 303.9 817.6 303.2 817.5 301.9 818.2 301.1L822.1 296.6C822.8 295.8 824.1 295.7 824.9 296.4 825.7 297.1 825.8 298.4 825.1 299.2L821.2 303.7C820.9 304.1 820.4 304.3 819.9 304.4Z" fill="#06243B"></path><path d="M813.8 302.1C813.1 302.2 812.5 302 811.9 301.5 810.9 300.6 810.8 299 811.7 298L816.3 292.7C817.2 291.7 818.8 291.6 819.8 292.5 820.8 293.4 820.9 295 820 296L815.4 301.3C815 301.8 814.4 302.1 813.8 302.1Z" fill="#06243B"></path><path d="M807.5 298.4C806.7 298.5 805.9 298.2 805.3 297.7 804.1 296.6 803.9 294.7 805 293.5L809.6 288.2C810.7 287 812.6 286.8 813.8 287.9 815 289 815.2 290.9 814.1 292.1L809.5 297.4C809 298 808.2 298.4 807.5 298.4Z" fill="#06243B"></path><path d="M800.2 294.7C799.4 294.8 798.6 294.5 798 294 796.8 292.9 796.6 291 797.7 289.8L803 283.8C804.1 282.6 806 282.4 807.2 283.5 808.4 284.6 808.6 286.5 807.5 287.7L802.2 293.7C801.6 294.3 800.9 294.6 800.2 294.7Z" fill="#06243B"></path><path d="M779.6 272.7 787.3 277.4C788.2 278 789.5 277.7 790 276.7L799.3 261.3C799.9 260.4 799.6 259.1 798.6 258.6L791 253.9 779.6 272.7Z" fill="#06243B"></path><path d="M844.4 285.8 828.3 272 827.2 271 820.3 278.9C819.3 280.1 817.9 280.8 816.3 280.9 816.1 280.9 815.9 280.9 815.8 280.9 814.3 280.9 812.9 280.4 811.9 279.4 809.4 277.2 809.2 273.4 811.3 270.9L817.2 264.1C812.6 263.5 806.7 265.9 800.6 262.9L791.9 277.3 798.7 285.2 801.3 282.2C802.2 281.1 803.6 280.5 805.1 280.5L805.1 280.5C806.3 280.5 807.5 280.9 808.4 281.7 809.5 282.6 810 283.9 810.1 285.3 810.6 285.1 811.2 285 811.8 285 813 285 814.2 285.4 815.1 286.2 816.2 287.2 816.8 288.5 816.8 289.9 817.2 289.8 817.7 289.7 818.1 289.7L818.1 289.7C819.2 289.7 820.2 290.1 821.1 290.8 822 291.6 822.5 292.7 822.6 293.9 822.9 293.8 823.3 293.7 823.7 293.7L823.7 293.7C824.7 293.7 825.6 294 826.3 294.7 827.1 295.4 827.6 296.4 827.7 297.4 827.8 298.5 827.4 299.5 826.7 300.3L823.3 304.2 824.7 305.3C825.4 305.7 826.2 306 827.1 305.9 829.3 305.7 830.9 303.8 830.7 301.6 830.7 301.6 830.7 301.5 830.7 301.5 831 301.6 831.4 301.6 831.7 301.6 833.9 301.4 835.5 299.5 835.3 297.3 835.3 297.3 835.3 297.2 835.3 297.2 835.6 297.3 836 297.3 836.3 297.3 838.5 297.1 840.1 295.2 839.9 293 839.9 292.8 839.8 292.6 839.8 292.4 840.4 292.7 841.1 292.9 841.9 292.8 844.1 292.6 845.7 290.7 845.5 288.5 845.6 287.4 845.1 286.5 844.4 285.8Z" fill="#06243B"></path><path d="M866.4 272.7 858.7 277.4C857.8 278 856.5 277.7 856 276.7L846.7 261.3C846.1 260.4 846.4 259.1 847.4 258.6L855.1 253.9 866.4 272.7Z" fill="#06243B"></path><path d="M845.5 263.3C837.2 266.3 831.2 263.4 824.5 262.1 824.4 262.1 824 262 824 262 822.8 261.9 821.5 262.3 820.6 263.3L812.7 272.3C811.2 274 811.4 276.5 813.1 277.9 814 278.6 815 279 816.1 278.9 817.1 278.8 818.1 278.4 818.8 277.5 818.8 277.5 827 268.1 827 268.1L845.7 284.2 845.7 284.2 845.7 284.2C846.2 284.7 846.4 284.9 846.8 285.5L854 277.2 845.5 263.3Z" fill="#06243B"></path></g></svg>