<svg width="96" height="96" xmlns="http://www.w3.org/2000/svg" xml:space="preserve" overflow="hidden"><defs><clipPath id="clip0"><path d="M775 232h96v96h-96z"/></clipPath></defs><g clip-path="url('#clip0')" transform="translate(-775 -232)" fill="#06243B"><path d="M819.9 304.4c-.5 0-1.1-.1-1.5-.5-.8-.7-.9-2-.2-2.8l3.9-4.5c.7-.8 2-.9 2.8-.2.8.7.9 2 .2 2.8l-3.9 4.5c-.3.4-.8.6-1.3.7ZM813.8 302.1c-.7.1-1.3-.1-1.9-.6-1-.9-1.1-2.5-.2-3.5l4.6-5.3c.9-1 2.5-1.1 3.5-.2 1 .9 1.1 2.5.2 3.5l-4.6 5.3c-.4.5-1 .8-1.6.8ZM807.5 298.4c-.8.1-1.6-.2-2.2-.7-1.2-1.1-1.4-3-.3-4.2l4.6-5.3c1.1-1.2 3-1.4 4.2-.3 1.2 1.1 1.4 3 .3 4.2l-4.6 5.3c-.5.6-1.3 1-2 1ZM800.2 294.7c-.8.1-1.6-.2-2.2-.7-1.2-1.1-1.4-3-.3-4.2l5.3-6c1.1-1.2 3-1.4 4.2-.3 1.2 1.1 1.4 3 .3 4.2l-5.3 6c-.6.6-1.3.9-2 1ZM779.6 272.7l7.7 4.7c.9.6 2.2.3 2.7-.7l9.3-15.4c.6-.9.3-2.2-.7-2.7l-7.6-4.7-11.4 18.8Z"/><path d="M844.4 285.8 828.3 272l-1.1-1-6.9 7.9c-1 1.2-2.4 1.9-4 2h-.5c-1.5 0-2.9-.5-3.9-1.5-2.5-2.2-2.7-6-.6-8.5l5.9-6.8c-4.6-.6-10.5 1.8-16.6-1.2l-8.7 14.4 6.8 7.9 2.6-3c.9-1.1 2.3-1.7 3.8-1.7 1.2 0 2.4.4 3.3 1.2 1.1.9 1.6 2.2 1.7 3.6.5-.2 1.1-.3 1.7-.3 1.2 0 2.4.4 3.3 1.2 1.1 1 1.7 2.3 1.7 3.7.4-.1.9-.2 1.3-.2 1.1 0 2.1.4 3 1.1.9.8 1.4 1.9 1.5 3.1.3-.1.7-.2 1.1-.2 1 0 1.9.3 2.6 1 .8.7 1.3 1.7 1.4 2.7.1 1.1-.3 2.1-1 2.9l-3.4 3.9 1.4 1.1c.7.4 1.5.7 2.4.6 2.2-.2 3.8-2.1 3.6-4.3v-.1c.3.1.7.1 1 .1 2.2-.2 3.8-2.1 3.6-4.3v-.1c.3.1.7.1 1 .1 2.2-.2 3.8-2.1 3.6-4.3 0-.2-.1-.4-.1-.6.6.3 1.3.5 2.1.4 2.2-.2 3.8-2.1 3.6-4.3.1-1.1-.4-2-1.1-2.7ZM866.4 272.7l-7.7 4.7c-.9.6-2.2.3-2.7-.7l-9.3-15.4c-.6-.9-.3-2.2.7-2.7l7.7-4.7 11.3 18.8Z"/><path d="M845.5 263.3c-8.3 3-14.3.1-21-1.2-.1 0-.5-.1-.5-.1-1.2-.1-2.5.3-3.4 1.3l-7.9 9c-1.5 1.7-1.3 4.2.4 5.6.9.7 1.9 1.1 3 1 1-.1 2-.5 2.7-1.4l8.2-9.4 18.7 16.1c.5.5.7.7 1.1 1.3l7.2-8.3-8.5-13.9Z"/></g></svg>