<svg width="77" height="77" xmlns="http://www.w3.org/2000/svg" xml:space="preserve" overflow="hidden"><defs><clipPath id="clip0"><path d="M986 387h77v77h-77z"/></clipPath></defs><g clip-path="url('#clip0')" transform="translate(-986 -387)"><path d="M1042.23 403.042v27.27l-13.48-13.475 13.48-13.795Zm-29.68-2.407h27.51l-13.55 14.037-13.96-14.037Zm-.8 43.473-2.89-2.887 2.89-6.256 2.88 6.256-2.88 2.887Zm2.24 2.326 2.09-2.085 3.69 7.86-5.78-5.775Zm-10.26 5.695 3.69-7.86 2.08 2.085-5.77 5.775Zm8.02-3.529 4.97 4.973h-9.95l4.98-4.973Zm37.78-10.908-4.1-4.171V402.24l.81-.802c1.36-1.364 1.36-3.449 0-4.813-1.37-1.364-3.45-1.364-4.82 0l-.8.802h-31.28l-3.29-3.208a31.816 31.816 0 0 0-3.93 15.32c0 8.181 3.05 15.56 8.02 21.255l-10.505 22.619c-.32.721-.32 1.604.161 2.326.484.721 1.204 1.122 2.004 1.122h19.97c.81 0 1.61-.401 2.01-1.122.4-.722.48-1.524.16-2.326l-8.34-17.807c5.29 3.69 11.71 5.936 18.61 5.936 5.53.08 10.74-1.444 15.32-3.85Z" fill="#7DA7D1"/></g></svg>