<svg width="77" height="77" xmlns="http://www.w3.org/2000/svg" xml:space="preserve" overflow="hidden"><defs><clipPath id="clip0"><path d="M180 387h77v77h-77z"/></clipPath></defs><g clip-path="url('#clip0')" transform="translate(-180 -387)" fill="#7DA7D1"><path d="M218.5 451.167c-14.117 0-25.667-11.55-25.667-25.667s11.55-25.667 25.667-25.667 25.667 11.55 25.667 25.667-11.55 25.667-25.667 25.667Zm0-56.146c-16.844 0-30.479 13.635-30.479 30.479s13.635 30.479 30.479 30.479 30.479-13.635 30.479-30.479-13.635-30.479-30.479-30.479Z"/><path d="M220.104 409.458h-3.208V425.5c0 .481.16.882.481 1.123l11.309 11.309 2.246-2.246-10.828-10.828v-15.4ZM220.104 404.646a1.604 1.604 0 1 1-3.208 0 1.604 1.604 0 0 1 3.208 0ZM220.104 446.354a1.604 1.604 0 1 1-3.208 0 1.604 1.604 0 0 1 3.208 0ZM199.25 425.5a1.604 1.604 0 1 1-3.208 0 1.604 1.604 0 0 1 3.208 0ZM240.958 425.5a1.604 1.604 0 1 1-3.208 0 1.604 1.604 0 0 1 3.208 0Z"/></g></svg>