<svg width="76" height="76" xmlns="http://www.w3.org/2000/svg" xml:space="preserve" overflow="hidden"><defs><clipPath id="clip0"><path d="M785 519h76v76h-76z"/></clipPath></defs><g clip-path="url('#clip0')" transform="translate(-785 -519)" fill="#7DA7D1"><path d="M797.01 574.757a3.801 3.801 0 0 0 3.032 2.035h14.25v6.333h-14.25a10.135 10.135 0 0 1-8.669-5.201 9.348 9.348 0 0 1 .38-9.674l8.233-14.25-5.431-3.167 13.253-3.547 3.547 13.253-5.772-3.317-8.265 14.329a3.047 3.047 0 0 0-.308 3.206ZM808.212 542.069l6.626-12.374a9.793 9.793 0 0 1 8.621-5.035 9.367 9.367 0 0 1 8.186 5.178l8.233 14.25 5.431-3.167-3.546 13.292-13.221-3.546 5.763-3.333L826 532.997a3.063 3.063 0 0 0-2.628-1.869 3.572 3.572 0 0 0-2.929 1.805l-6.634 12.374ZM854.342 578.557a9.367 9.367 0 0 1-8.273 4.568h-16.736v6.333l-9.729-9.896 9.729-9.626v6.856h16.522a3.17 3.17 0 0 0 2.93-1.536 3.422 3.422 0 0 0-.095-3.444l-7.244-12.35 5.597-3.254 7.252 12.342c.408.72.73 1.485.958 2.28l.134.523a9.712 9.712 0 0 1-1.045 7.204Z"/></g></svg>