<svg width="96" height="96" xmlns="http://www.w3.org/2000/svg" xmlns:xlink="http://www.w3.org/1999/xlink" xml:space="preserve" overflow="hidden"><defs><clipPath id="clip0"><rect x="372" y="228" width="96" height="96"></rect></clipPath></defs><g clip-path="url('#clip0')" transform="translate(-372 -228)"><path d="M446.2 302.2C442.7 305.7 437 305.7 433.5 302.2L425 293.7C422.3 291 421.6 286.9 423.3 283.5L430.7 290.9C431.9 292 433.7 292 434.9 290.8 436 289.7 436.1 287.8 435 286.6L427.6 279.2C431 277.6 435.1 278.3 437.8 281L446.3 289.5C449.7 293 449.7 298.6 446.2 302.2ZM402.3 271 393.8 262.5C390.3 259 390.3 253.3 393.8 249.8 397.3 246.3 403 246.3 406.5 249.8L415 258.3C417.7 261 418.4 265.1 416.8 268.5L410.8 262.5C409.6 261.4 407.8 261.4 406.6 262.6 405.5 263.7 405.4 265.6 406.5 266.8L412.5 272.8C409.1 274.4 405 273.7 402.3 271ZM450.4 285.2 441.9 276.7C436.9 271.6 428.9 270.8 423 274.8L421.2 273C425.1 267.1 424.3 259.2 419.3 254.1L410.8 245.6C404.9 240.2 395.7 240.4 390 246 384.3 251.7 384.1 260.8 389.6 266.8L398.1 275.3C403.1 280.4 411.1 281.2 417 277.2L418.8 279C414.9 284.9 415.7 292.8 420.7 297.9L429.2 306.4C435.1 311.9 444.3 311.7 450 306 455.7 300.3 455.9 291.1 450.4 285.2L450.4 285.2Z" fill="#06243B"></path></g></svg>