<svg width="96" height="96" xmlns="http://www.w3.org/2000/svg" xml:space="preserve" overflow="hidden"><defs><clipPath id="clip0"><path d="M372 228h96v96h-96z"/></clipPath></defs><g clip-path="url('#clip0')" transform="translate(-372 -228)"><path d="M446.2 302.2c-3.5 3.5-9.2 3.5-12.7 0l-8.5-8.5c-2.7-2.7-3.4-6.8-1.7-10.2l7.4 7.4c1.2 1.1 3 1.1 4.2-.1 1.1-1.1 1.2-3 .1-4.2l-7.4-7.4c3.4-1.6 7.5-.9 10.2 1.8l8.5 8.5c3.4 3.5 3.4 9.1-.1 12.7ZM402.3 271l-8.5-8.5c-3.5-3.5-3.5-9.2 0-12.7s9.2-3.5 12.7 0l8.5 8.5c2.7 2.7 3.4 6.8 1.8 10.2l-6-6c-1.2-1.1-3-1.1-4.2.1-1.1 1.1-1.2 3-.1 4.2l6 6c-3.4 1.6-7.5.9-10.2-1.8Zm48.1 14.2-8.5-8.5c-5-5.1-13-5.9-18.9-1.9l-1.8-1.8c3.9-5.9 3.1-13.8-1.9-18.9l-8.5-8.5c-5.9-5.4-15.1-5.2-20.8.4-5.7 5.7-5.9 14.8-.4 20.8l8.5 8.5c5 5.1 13 5.9 18.9 1.9l1.8 1.8c-3.9 5.9-3.1 13.8 1.9 18.9l8.5 8.5c5.9 5.5 15.1 5.3 20.8-.4 5.7-5.7 5.9-14.9.4-20.8Z" fill="#06243B"/></g></svg>