<svg xmlns="http://www.w3.org/2000/svg" version="1.0" width="800" height="400" id="svg2"><path d="M587.488 328.23a50.963 50.963 0 0 1-11.682 4.45c-4.038.989-8.205 1.483-12.503 1.483-9.716 0-17.413-2.945-23.092-8.836-5.678-5.89-8.517-13.878-8.517-23.964 0-10.2 2.891-18.223 8.674-24.071 5.782-5.849 13.7-8.773 23.755-8.773 3.881 0 7.6.396 11.155 1.187a44.539 44.539 0 0 1 10.061 3.517v13.095c-3.256-2.006-6.492-3.503-9.709-4.492-3.217-.989-6.44-1.483-9.67-1.483-5.991 0-10.608 1.815-13.851 5.445-3.243 3.63-4.865 8.822-4.865 15.575 0 6.695 1.563 11.865 4.689 15.51 3.126 3.645 7.567 5.467 13.323 5.467a27.97 27.97 0 0 0 4.357-.318c1.341-.212 2.546-.544 3.614-.996v-12.29h-9.182v-10.933h23.443v30.427zm45.09-29.834a17.021 17.021 0 0 0-3.654-1.377 15.309 15.309 0 0 0-3.653-.445c-3.595 0-6.362 1.25-8.303 3.75-1.94 2.5-2.91 6.082-2.91 10.743v21.867H600.07v-47.463h13.987v7.797c1.798-3.107 3.862-5.375 6.193-6.801 2.332-1.427 5.125-2.14 8.381-2.14.469 0 .977.02 1.524.063a45.31 45.31 0 0 1 2.383.275l.04 13.731zm26.647 13.18c-2.918 0-5.112.536-6.584 1.61-1.472 1.074-2.208 2.656-2.208 4.746 0 1.922.593 3.426 1.778 4.514 1.185 1.087 2.833 1.631 4.943 1.631 2.63 0 4.845-1.024 6.642-3.072 1.797-2.048 2.696-4.612 2.696-7.692v-1.737h-7.267zm21.372-5.721v27.08h-14.105V325.9c-1.876 2.881-3.985 4.979-6.33 6.293-2.344 1.313-5.196 1.97-8.557 1.97-4.532 0-8.211-1.433-11.037-4.301-2.827-2.868-4.24-6.59-4.24-11.167 0-5.565 1.765-9.648 5.295-12.247 3.53-2.6 9.07-3.899 16.625-3.899h8.244v-1.186c0-2.402-.873-4.16-2.618-5.277-1.745-1.116-4.467-1.673-8.166-1.674-2.995 0-5.783.325-8.361.975a27.297 27.297 0 0 0-7.19 2.924v-11.569a74.562 74.562 0 0 1 9.026-1.801 67.413 67.413 0 0 1 9.065-.615c7.892 0 13.59 1.689 17.094 5.065 3.503 3.376 5.255 8.864 5.255 16.464zm10.94-20.384h38.173v10.594l-23.052 26.02h23.052v10.85h-39.15V322.34l23.053-26.02h-22.076v-10.85z" id="text2424" style="font-variant:normal;text-align:start;writing-mode:lr-tb;text-anchor:start;fill:#000;fill-opacity:1;stroke:none;stroke-width:1px;stroke-linecap:butt;stroke-linejoin:miter;stroke-opacity:1;-inkscape-font-specification:DejaVu Sans Bold;font-family:DejaVu Sans;font-size:110.524px;font-style:normal;font-weight:700;font-stretch:100%;line-height:100%"/><path d="M530.951 260.147V146.351h-41.175v-23.17H600.05v23.17h-41.08v113.796H530.95zm87.082-136.966h28.018v74.182c0 11.773.347 19.403 1.041 22.89 1.2 5.606 4.055 10.106 8.566 13.5 4.512 3.395 10.68 5.093 18.505 5.093 7.951 0 13.946-1.604 17.985-4.812 4.038-3.208 6.468-7.147 7.288-11.819.82-4.67 1.23-12.425 1.23-23.263v-75.77h28.018v71.94c0 16.443-.757 28.059-2.271 34.848-1.515 6.79-4.307 12.52-8.377 17.19-4.07 4.672-9.513 8.394-16.328 11.166-6.815 2.771-15.713 4.157-26.693 4.157-13.251 0-23.3-1.51-30.147-4.531-6.847-3.021-12.258-6.945-16.233-11.772-3.976-4.827-6.595-9.888-7.857-15.182-1.83-7.848-2.745-19.433-2.745-34.756v-73.06z" id="text2428" style="font-variant:normal;text-align:start;writing-mode:lr-tb;text-anchor:start;fill:#000;fill-opacity:1;stroke:none;stroke-width:1px;stroke-linecap:butt;stroke-linejoin:miter;stroke-opacity:1;-inkscape-font-specification:Arial Bold;font-family:Arial;font-size:255.425px;font-style:normal;font-weight:700;font-stretch:100%;line-height:100%"/><path d="M261.486 49.443v71.207h-85.133v71.23h-14.279v-71.23H21.17v140.906h71.23v71.23h140.906v-71.23h83.954v-71.207h14.303v71.207h140.906V120.65h-70.076V49.443H261.486zm478.703 234.969v48.751h48.751v-48.751H740.19z" id="rect2432" style="opacity:.97;fill:#ee2556;fill-opacity:1;fill-rule:nonzero;stroke:none;stroke-width:1.8px;stroke-linecap:round;stroke-linejoin:round;stroke-miterlimit:4;stroke-dasharray:none;stroke-opacity:1"/></svg>