<svg width="77" height="77" xmlns="http://www.w3.org/2000/svg" xmlns:xlink="http://www.w3.org/1999/xlink" xml:space="preserve" overflow="hidden"><defs><clipPath id="clip0"><rect x="381" y="519" width="77" height="77"/></clipPath></defs><g clip-path="url(#clip0)" transform="translate(-381 -519)"><path d="M397.042 560.708 419.5 560.708 419.5 563.917 397.042 563.917Z" fill="#7DA7D1"/><path d="M397.042 567.125 419.5 567.125 419.5 570.333 397.042 570.333Z" fill="#7DA7D1"/><path d="M400.571 552.928C400.651 552.928 409.153 549.88 419.5 549.88 429.847 549.88 438.349 552.928 438.429 552.928 438.75 553.008 438.991 553.089 439.311 553.089 440.434 553.089 441.477 552.367 441.798 551.164 442.279 549.72 441.557 548.116 440.114 547.634 439.793 547.474 430.729 544.266 419.5 544.266 408.271 544.266 399.207 547.474 398.806 547.634 397.443 548.116 396.641 549.72 397.122 551.164 397.683 552.688 399.207 553.409 400.571 552.928" fill="#7DA7D1"/><path d="M387.417 579.958 451.583 579.958 451.583 535.042 387.417 535.042 387.417 579.958ZM446.771 575.146 392.229 575.146 392.229 539.854 446.771 539.854 446.771 575.146Z" fill="#7DA7D1"/><path d="M439.953 563.355 440.274 561.19 438.189 561.591 437.386 559.505 435.782 560.949 434.098 559.505 433.376 561.591 431.21 561.19 431.611 563.355 429.526 564.077 430.97 565.761 429.526 567.366 431.611 568.168 431.21 570.253 433.376 569.932 434.098 571.938 435.782 570.574 437.386 571.938 438.189 569.932 440.274 570.253 439.953 568.168 441.958 567.366 440.595 565.761 441.958 564.077Z" fill="#7DA7D1"/></g></svg>