<svg width="77" height="77" xmlns="http://www.w3.org/2000/svg" xmlns:xlink="http://www.w3.org/1999/xlink" xml:space="preserve" overflow="hidden"><defs><clipPath id="clip0"><rect x="986" y="387" width="77" height="77"/></clipPath></defs><g clip-path="url(#clip0)" transform="translate(-986 -387)"><path d="M1042.23 403.042 1042.23 430.312 1028.75 416.837 1042.23 403.042ZM1012.55 400.635 1040.06 400.635 1026.51 414.672 1012.55 400.635ZM1011.75 444.108 1008.86 441.221 1011.75 434.965 1014.63 441.221 1011.75 444.108ZM1013.99 446.434 1016.08 444.349 1019.77 452.209 1013.99 446.434ZM1003.73 452.129 1007.42 444.269 1009.5 446.354 1003.73 452.129ZM1011.75 448.6 1016.72 453.573 1006.77 453.573 1011.75 448.6ZM1049.53 437.692 1045.43 433.521 1045.43 402.24 1046.24 401.438C1047.6 400.074 1047.6 397.989 1046.24 396.625 1044.87 395.261 1042.79 395.261 1041.42 396.625L1040.62 397.427 1009.34 397.427 1006.05 394.219C1003.57 398.71 1002.12 404.004 1002.12 409.539 1002.12 417.72 1005.17 425.099 1010.14 430.794L999.635 453.413C999.315 454.134 999.315 455.017 999.796 455.739 1000.28 456.46 1001 456.861 1001.8 456.861L1021.77 456.861C1022.58 456.861 1023.38 456.46 1023.78 455.739 1024.18 455.017 1024.26 454.215 1023.94 453.413L1015.6 435.606C1020.89 439.296 1027.31 441.542 1034.21 441.542 1039.74 441.622 1044.95 440.098 1049.53 437.692Z" fill="#7DA7D1"/></g></svg>