<svg width="77" height="77" xmlns="http://www.w3.org/2000/svg" xmlns:xlink="http://www.w3.org/1999/xlink" xml:space="preserve" overflow="hidden"><defs><clipPath id="clip0"><rect x="180" y="387" width="77" height="77"/></clipPath></defs><g clip-path="url(#clip0)" transform="translate(-180 -387)"><path d="M218.5 451.167C204.383 451.167 192.833 439.617 192.833 425.5 192.833 411.383 204.383 399.833 218.5 399.833 232.617 399.833 244.167 411.383 244.167 425.5 244.167 439.617 232.617 451.167 218.5 451.167ZM218.5 395.021C201.656 395.021 188.021 408.656 188.021 425.5 188.021 442.344 201.656 455.979 218.5 455.979 235.344 455.979 248.979 442.344 248.979 425.5 248.979 408.656 235.344 395.021 218.5 395.021Z" fill="#7DA7D1"/><path d="M220.104 409.458 216.896 409.458 216.896 425.5C216.896 425.981 217.056 426.382 217.377 426.623L228.686 437.932 230.932 435.686 220.104 424.858 220.104 409.458Z" fill="#7DA7D1"/><path d="M220.104 404.646C220.104 405.532 219.386 406.25 218.5 406.25 217.614 406.25 216.896 405.532 216.896 404.646 216.896 403.76 217.614 403.042 218.5 403.042 219.386 403.042 220.104 403.76 220.104 404.646Z" fill="#7DA7D1"/><path d="M220.104 446.354C220.104 447.24 219.386 447.958 218.5 447.958 217.614 447.958 216.896 447.24 216.896 446.354 216.896 445.468 217.614 444.75 218.5 444.75 219.386 444.75 220.104 445.468 220.104 446.354Z" fill="#7DA7D1"/><path d="M199.25 425.5C199.25 426.386 198.532 427.104 197.646 427.104 196.76 427.104 196.042 426.386 196.042 425.5 196.042 424.614 196.76 423.896 197.646 423.896 198.532 423.896 199.25 424.614 199.25 425.5Z" fill="#7DA7D1"/><path d="M240.958 425.5C240.958 426.386 240.24 427.104 239.354 427.104 238.468 427.104 237.75 426.386 237.75 425.5 237.75 424.614 238.468 423.896 239.354 423.896 240.24 423.896 240.958 424.614 240.958 425.5Z" fill="#7DA7D1"/></g></svg>