<svg width="76" height="76" xmlns="http://www.w3.org/2000/svg" xmlns:xlink="http://www.w3.org/1999/xlink" xml:space="preserve" overflow="hidden"><defs><clipPath id="clip0"><rect x="785" y="519" width="76" height="76"/></clipPath></defs><g clip-path="url(#clip0)" transform="translate(-785 -519)"><path d="M797.01 574.757C797.607 575.908 798.75 576.675 800.042 576.792L814.292 576.792 814.292 583.125 800.042 583.125C796.432 583.059 793.13 581.078 791.373 577.924 789.69 574.879 789.836 571.153 791.753 568.25L799.986 554 794.555 550.833 807.808 547.286 811.355 560.539 805.583 557.222 797.318 571.551C796.613 572.473 796.493 573.717 797.01 574.757Z" fill="#7DA7D1"/><path d="M808.212 542.069 814.838 529.695C816.576 526.568 819.881 524.638 823.459 524.66 826.938 524.732 830.09 526.726 831.645 529.838L839.878 544.088 845.309 540.921 841.763 554.213 828.542 550.667 834.305 547.334 826 532.997C825.549 531.926 824.532 531.202 823.372 531.128 822.151 531.189 821.046 531.87 820.443 532.933L813.809 545.307Z" fill="#7DA7D1"/><path d="M854.342 578.557C852.611 581.461 849.449 583.207 846.069 583.125L829.333 583.125 829.333 589.458 819.604 579.562 829.333 569.936 829.333 576.792 845.855 576.792C847.043 576.871 848.174 576.277 848.785 575.256 849.376 574.175 849.339 572.859 848.69 571.812L841.446 559.462 847.043 556.208 854.295 568.55C854.703 569.27 855.025 570.035 855.253 570.83L855.387 571.353C855.986 573.799 855.611 576.382 854.342 578.557Z" fill="#7DA7D1"/></g></svg>