<svg id="Logo_Symbold_Farbe" xmlns="http://www.w3.org/2000/svg" viewBox="0 0 381.91813 430.73935"><defs><style>.cls-1{fill:#7da7d1;}.cls-2{fill:#fff;}.cls-3{fill:#06253a;}</style></defs><path class="cls-1" d="M107.54548,135.05639H81.82207v-39.383l4.758-5.604h20.96546S291.94,82.8457,291.94,257.25937l-5.62987,13.94009H247.91651l-.00933-13.93971s-.82979-122.20336-140.3617-122.20336"/><path class="cls-1" d="M86.58,44.8649V.06937c48.53992,0,295.33811-11.37469,295.33811,257.19038l-45.03289.00037C336.88524,101.77875,234.24871,44.8649,86.58,44.8649Z"/><polygon class="cls-2" points="45.908 143.708 45.789 143.708 45.789 143.657 45.908 143.708"/><path class="cls-1" d="M36.37408,171.8633h70.98735c53.62319,0,95.75512,33.25816,95.75512,87.39216,0,65.90829-42.38474,97.14208-95.75512,97.14208H36.37408Zm30.048,142.14546H97.65772c29.87647,0,56.41369-13.34234,56.41369-50.87927,0-34.472-23.72862-48.87914-55.90114-48.87914H66.42205Z"/><path class="cls-3" d="M291.94,257.25937H203.12c-.38,65.84-45.65,98.49-97.11,98.49H86.58v-265.68H0v340.67H122.8c92.33,0,169.18-74.55,169.18-170.34C291.98,259.34934,291.96,258.28934,291.94,257.25937Z"/></svg>