<svg xmlns="http://www.w3.org/2000/svg" viewBox="85.91 435.27 908.2 209.47"><defs><style>.cls-1 {
  fill: #7da7d1;
}

.cls-2 {
  fill: #fff;
}

.cls-3 {
  fill: #06253a;
}

</style></defs><g id="Logo_horizontal_Farbe"><path class="cls-1" d="M138.20531,500.94338H125.69594V481.79131l2.3138-2.72526h10.19557s89.67167-3.5129,89.67167,81.305l-21.41331.00018s-.40353-59.4279-68.25836-59.4279"></path><path class="cls-1" d="M128.00974,457.083V435.29875c23.60513,0,143.6239-5.53155,143.6239,125.07253l-21.89964.00018C249.734,484.76036,199.82151,457.083,128.00974,457.083Z"></path><polygon class="cls-2" points="108.231 505.151 108.173 505.151 108.173 505.126 108.231 505.151"></polygon><path class="cls-1" d="M103.59443,518.84271h34.52138c26.07713,0,46.566,16.17355,46.566,42.49909,0,32.05142-20.61184,47.24052-46.566,47.24052H103.59443Zm24.3391,69.1258h5.46333c14.529,0,27.43417-6.48842,27.43417-24.74275,0-16.76387-11.53931-23.77009-27.18491-23.77009h-5.71259Z"></path><path class="cls-3" d="M227.877,560.3711H184.68352c-.1848,32.01819-22.19973,47.896-47.22491,47.896h-9.44887v-129.201H85.90559V644.735h59.718a82.36694,82.36694,0,0,0,82.27279-82.83688C227.89642,561.38745,227.88671,560.872,227.877,560.3711Z"></path><path class="cls-3" d="M323.97169,518.77352h30.6282c23.13626,0,42.19633,18.17849,42.19633,41.53514,0,23.3574-19.16915,41.53589-42.19633,41.53589h-30.6282Zm21.59424,64.782h4.8472c12.8905,0,23.90876-7.05115,23.90876-23.24683,0-14.87331-9.80646-23.24683-23.68762-23.24683h-5.06834Z"></path><path class="cls-3" d="M502.84288,572.42815h.21965l17.409-53.65463h17.18633l16.30626,53.65463h.21964l15.64432-53.65463h22.47582l-26.552,83.071h-22.035L529.17525,553.6983h-.22115l-16.30625,48.14625H490.72339l-24.78885-83.071h22.47582Z"></path><path class="cls-3" d="M619.28473,601.84455H597.69049v-83.071h21.59424Z"></path><path class="cls-3" d="M633.38255,518.77352h21.59424l39.55308,50.79024h.21965V518.77352h21.59424v83.071H694.74952l-39.55308-50.90081h-.21965v50.90081H633.38255Z"></path><path class="cls-3" d="M752.03133,537.06183v13.88191h24.34806V569.2328H752.03133v14.32269h25.67043v18.28906H730.43709v-83.071h47.26467v18.28831Z"></path><path class="cls-3" d="M429.18758,537.06183v13.88191h24.34806V569.2328H429.18758v14.32269H454.858v18.28906H407.59334v-83.071H454.858v18.28831Z"></path><path class="cls-1" d="M808.58448,524.67945v65.95494h22.63988v11.08869H796.803V524.67945Z"></path><path class="cls-1" d="M875.8113,553.09491h11.319v48.62817h-11.319v-5.08184a18.67662,18.67662,0,0,1-14.55461,6.58308c-15.01522,0-23.563-12.4743-23.563-25.8736,0-15.82366,10.85744-25.52674,23.67862-25.52674a17.73046,17.73046,0,0,1,14.439,6.93ZM849.24489,577.582c0,8.43214,5.31309,15.47772,13.514,15.47772,7.1612,0,13.74523-5.19747,13.74523-15.3621,0-10.62619-6.584-15.709-13.74523-15.709C854.558,561.98861,849.24489,568.91951,849.24489,577.582Z"></path><path class="cls-1" d="M912.77548,558.75394a17.72891,17.72891,0,0,1,14.438-6.93c12.82212,0,23.67956,9.70308,23.67956,25.52674,0,13.3993-8.54777,25.8736-23.56393,25.8736a18.67613,18.67613,0,0,1-14.55367-6.58308v5.08184H901.45554V517.51824h11.31994Zm-.69281,18.94365c0,10.16463,6.584,15.3621,13.74524,15.3621,8.20089,0,13.514-7.04558,13.514-15.47772,0-8.66246-5.31309-15.59336-13.514-15.59336C918.6667,561.98861,912.08267,567.0714,912.08267,577.69759Z"></path><path class="cls-1" d="M983.92978,565.91609a8.143,8.143,0,0,0-6.93-4.15872,4.79825,4.79825,0,0,0-3.465,1.27093,3.66,3.66,0,0,0-1.03969,2.54092,3.10942,3.10942,0,0,0,1.61687,2.77217c.69281.4625,1.38562.69281,3.81185,1.96374l5.77466,2.8878a23.334,23.334,0,0,1,6.81527,4.50466,12.00247,12.00247,0,0,1,3.58061,9.00932A16.14687,16.14687,0,0,1,989.821,597.7956c-3.81185,4.15873-8.54776,5.42872-13.62961,5.42872a16.73945,16.73945,0,0,1-10.5115-3.1181,18.95084,18.95084,0,0,1-6.23715-8.89464l9.24057-4.389a12.79339,12.79339,0,0,0,2.65655,4.62029,6.93211,6.93211,0,0,0,4.96622,1.84811,6.81377,6.81377,0,0,0,4.62123-1.61686,5.73859,5.73859,0,0,0,1.61686-3.81186A5.24413,5.24413,0,0,0,981.042,584.166a14.89716,14.89716,0,0,0-4.8506-3.00342l-4.15872-1.96374A23.977,23.977,0,0,1,965.333,575.041a10.60324,10.60324,0,0,1-3.465-8.20089,15.183,15.183,0,0,1,4.04311-10.39588c2.19405-2.30967,5.89028-4.62029,11.89712-4.62029a15.21692,15.21692,0,0,1,9.00932,2.54093,16.7001,16.7001,0,0,1,5.54435,6.00684Z"></path></g></svg>