<svg id="Logo_vertikal_weiß" xmlns="http://www.w3.org/2000/svg" viewBox="0 0 381.91805 558.81694"><defs><style>.cls-1 {
  fill: #fff;
}

</style></defs><path class="cls-1" d="M86.57994,44.8649V.06937c48.53992,0,295.33811-11.37469,295.33811,257.19038l-45.03289.00037C336.88516,101.77875,234.24863,44.8649,86.57994,44.8649Z"></path><path class="cls-1" d="M.7,511.14472H17.98957a23.4496,23.4496,0,1,1,0,46.89335H.7ZM12.88992,547.714h2.73623c7.27665,0,13.49643-3.98036,13.49643-13.12277,0-8.39594-5.53572-13.12277-13.37159-13.12277H12.88992Z"></path><path class="cls-1" d="M101.6723,541.4326h.124l9.82731-30.28788h9.70164l9.20483,30.28788h.124l8.83117-30.28788h12.68753l-14.98853,46.89335H124.74552l-8.20868-27.17842H116.412l-9.20483,27.17842H94.83088L80.83765,511.14472H93.52518Z"></path><path class="cls-1" d="M167.40337,558.03807H155.21349V511.14472h12.18988Z"></path><path class="cls-1" d="M175.36155,511.14472h12.18988l22.3276,28.67094h.124V511.14472H222.1929v46.89335H210.003l-22.3276-28.73336h-.124v28.73336H175.36155Z"></path><path class="cls-1" d="M242.33843,521.46841v7.8363h13.74441v10.32412H242.33843V547.714h14.49088v10.32412H230.14855V511.14472h26.68076v10.32369Z"></path><path class="cls-1" d="M60.0941,521.46841v7.8363H73.8385v10.32412H60.0941V547.714H74.585v10.32412H47.90421V511.14472H74.585v10.32369Z"></path><path class="cls-1" d="M291.93994,257.25936c0-174.41363-184.39453-167.19-184.39453-167.19H0v340.67H122.7998c92.33008,0,169.18018-74.55,169.18018-170.34C291.98,259.34933,291.96,258.28933,291.93994,257.25936ZM97.65771,314.00875H86.58008V214.25033H98.17017c32.1726,0,55.90112,14.4071,55.90112,48.87915C154.07129,300.66641,127.53418,314.00875,97.65771,314.00875Zm105.46216-56.74939c-.00171.32569-.012.64533-.01587.96942-.53125-53.52539-42.46045-86.36547-95.74267-86.36547H86.58008V135.05636h20.96533c139.523,0,140.36157,122.18726,140.36182,122.203Z"></path><path class="cls-1" d="M274.26252,514.47859V551.71h12.78014v6.25953H267.6119V514.47859Z"></path><path class="cls-1" d="M312.21186,530.519h6.38954V557.9695h-6.38954v-2.86869a10.54289,10.54289,0,0,1-8.216,3.71613c-8.476,0-13.30124-7.0417-13.30124-14.60557,0-8.93241,6.129-14.40976,13.36651-14.40976a10.00879,10.00879,0,0,1,8.15077,3.91194Zm-14.99667,13.82287c0,4.75992,2.99923,8.73713,7.62861,8.73713,4.04248,0,7.75914-2.934,7.75914-8.67186,0-5.99845-3.71666-8.86767-7.75914-8.86767C300.21442,535.53951,297.21519,539.452,297.21519,544.34191Z"></path><path class="cls-1" d="M333.078,533.71355a10.00791,10.00791,0,0,1,8.15024-3.91194c7.238,0,13.367,5.47735,13.367,14.40976,0,7.56387-4.82519,14.60557-13.30177,14.60557a10.5426,10.5426,0,0,1-8.21551-3.71613v2.86869H326.688V510.43611H333.078Zm-.39108,10.69363c0,5.7379,3.71666,8.67186,7.75914,8.67186,4.62938,0,7.6286-3.97721,7.6286-8.73713,0-4.88993-2.99922-8.8024-7.6286-8.8024C336.4036,535.53951,332.68694,538.40873,332.68694,544.40718Z"></path><path class="cls-1" d="M373.24441,537.75656a4.59668,4.59668,0,0,0-3.91194-2.34759,2.7086,2.7086,0,0,0-1.956.71744,2.066,2.066,0,0,0-.5869,1.43434,1.75524,1.75524,0,0,0,.91272,1.56488c.39109.26108.78217.39109,2.15178,1.10853l3.25977,1.63015a13.172,13.172,0,0,1,3.84721,2.54287,6.77536,6.77536,0,0,1,2.02124,5.08574,9.11488,9.11488,0,0,1-2.41233,6.25953,9.80172,9.80172,0,0,1-7.69388,3.06449,9.4493,9.4493,0,0,1-5.93371-1.76016,10.6976,10.6976,0,0,1-3.52085-5.021l5.21627-2.47759a7.22186,7.22186,0,0,0,1.49961,2.60813,3.91315,3.91315,0,0,0,2.80342,1.04326,3.84632,3.84632,0,0,0,2.60867-.91272,3.23936,3.23936,0,0,0,.91272-2.15178,2.96029,2.96029,0,0,0-.848-2.08651,8.40952,8.40952,0,0,0-2.73815-1.69542l-2.34759-1.10852a13.5353,13.5353,0,0,1-3.78193-2.34706,5.98552,5.98552,0,0,1-1.956-4.62938,8.57074,8.57074,0,0,1,2.28232-5.86845,8.846,8.846,0,0,1,6.71589-2.60813,8.58987,8.58987,0,0,1,5.08573,1.43434,9.42715,9.42715,0,0,1,3.12977,3.39084Z"></path></svg>